<svg xmlns="http://www.w3.org/2000/svg" viewBox="0 13.699999809265137 383.95001220703125 47.14999771118164" data-asc="1.025"><g fill="#000000"><g fill="#000000" transform="translate(0, 0)"><path d="M6.95 28.05L6.40 28.05L6.40 51.25L0 51.25L0 16.35L9 16.35L16.95 39.55L17.50 39.55L17.50 16.35L23.90 16.35L23.90 51.25L14.90 51.25L6.95 28.05ZM42.65 51.85Q36.15 51.85 32.80 48.25Q29.45 44.65 29.45 38.45Q29.45 35.30 30.32 32.77Q31.20 30.25 32.83 28.47Q34.45 26.70 36.77 25.77Q39.10 24.85 42 24.85Q44.90 24.85 47.20 25.77Q49.50 26.70 51.10 28.40Q52.70 30.10 53.58 32.52Q54.45 34.95 54.45 37.95L54.45 40.15L36.80 40.15L36.80 40.60Q36.80 43.10 38.35 44.62Q39.90 46.15 42.90 46.15Q45.20 46.15 46.85 45.27Q48.50 44.40 49.70 42.95L53.70 47.30Q52.20 49.15 49.50 50.50Q46.80 51.85 42.65 51.85M42.05 30.15Q39.65 30.15 38.23 31.62Q36.80 33.10 36.80 35.60L36.80 36.00L47.20 36.00L47.20 35.60Q47.20 33.05 45.83 31.60Q44.45 30.15 42.05 30.15ZM71.95 51.85Q68.95 51.85 66.55 50.92Q64.15 50.00 62.48 48.25Q60.80 46.50 59.90 44.00Q59 41.50 59 38.35Q59 35.20 59.90 32.70Q60.80 30.20 62.48 28.45Q64.15 26.70 66.55 25.77Q68.95 24.85 71.95 24.85Q74.95 24.85 77.35 25.77Q79.75 26.70 81.43 28.45Q83.10 30.20 84 32.70Q84.90 35.20 84.90 38.35Q84.90 41.50 84 44.00Q83.10 46.50 81.43 48.25Q79.75 50.00 77.35 50.92Q74.95 51.85 71.95 51.85M71.95 46.35Q74.45 46.35 75.85 44.80Q77.25 43.25 77.25 40.40L77.25 36.30Q77.25 33.45 75.85 31.90Q74.45 30.35 71.95 30.35Q69.45 30.35 68.05 31.90Q66.65 33.45 66.65 36.30L66.65 40.40Q66.65 43.25 68.05 44.80Q69.45 46.35 71.95 46.35ZM90.75 51.25L90.75 16.35L104.25 16.35Q106.80 16.35 108.80 17.12Q110.80 17.90 112.18 19.35Q113.55 20.80 114.25 22.85Q114.95 24.90 114.95 27.45Q114.95 30.00 114.25 32.05Q113.55 34.10 112.18 35.55Q110.80 37.00 108.80 37.77Q106.80 38.55 104.25 38.55L98.30 38.55L98.30 51.25L90.75 51.25M98.30 32.50L102.35 32.50Q105 32.50 106.03 31.50Q107.05 30.50 107.05 28.20L107.05 26.70Q107.05 24.40 106.03 23.40Q105 22.40 102.35 22.40L98.30 22.40L98.30 32.50ZM131.95 51.85Q128.95 51.85 126.55 50.92Q124.15 50.00 122.48 48.25Q120.80 46.50 119.90 44.00Q119 41.50 119 38.35Q119 35.20 119.90 32.70Q120.80 30.20 122.48 28.45Q124.15 26.70 126.55 25.77Q128.95 24.85 131.95 24.85Q134.95 24.85 137.35 25.77Q139.75 26.70 141.43 28.45Q143.10 30.20 144 32.70Q144.90 35.20 144.90 38.35Q144.90 41.50 144 44.00Q143.10 46.50 141.43 48.25Q139.75 50.00 137.35 50.92Q134.95 51.85 131.95 51.85M131.95 46.35Q134.45 46.35 135.85 44.80Q137.25 43.25 137.25 40.40L137.25 36.30Q137.25 33.45 135.85 31.90Q134.45 30.35 131.95 30.35Q129.45 30.35 128.05 31.90Q126.65 33.45 126.65 36.30L126.65 40.40Q126.65 43.25 128.05 44.80Q129.45 46.35 131.95 46.35ZM150.65 45.50L156.60 45.50L156.60 31.20L150.65 31.20L150.65 25.45L164 25.45L164 32.75L164.35 32.75Q164.70 31.35 165.32 30.02Q165.95 28.70 166.92 27.67Q167.90 26.65 169.30 26.05Q170.70 25.45 172.60 25.45L175.05 25.45L175.05 32.25L169.55 32.25Q166.80 32.25 165.40 33.87Q164 35.50 164 37.85L164 45.50L172.50 45.50L172.50 51.25L150.65 51.25L150.65 45.50ZM193.95 51.25Q189.95 51.25 188 49.15Q186.05 47.05 186.05 43.80L186.05 31.20L179.05 31.20L179.05 25.45L183.60 25.45Q185.25 25.45 185.95 24.80Q186.65 24.15 186.65 22.40L186.65 16.35L193.45 16.35L193.45 25.45L203.50 25.45L203.50 31.20L193.45 31.20L193.45 45.50L203.50 45.50L203.50 51.25L193.95 51.25ZM210.50 45.50L218.10 45.50L218.10 31.20L210 31.20L210 25.45L218.10 25.45L218.10 21.70Q218.10 18.40 220.02 16.32Q221.95 14.25 226 14.25L234.75 14.25L234.75 20.00L225.50 20.00L225.50 25.45L234.75 25.45L234.75 31.20L225.50 31.20L225.50 45.50L233.60 45.50L233.60 51.25L210.50 51.25L210.50 45.50ZM251.95 51.85Q248.95 51.85 246.55 50.92Q244.15 50.00 242.47 48.25Q240.80 46.50 239.90 44.00Q239 41.50 239 38.35Q239 35.20 239.90 32.70Q240.80 30.20 242.47 28.45Q244.15 26.70 246.55 25.77Q248.95 24.85 251.95 24.85Q254.95 24.85 257.35 25.77Q259.75 26.70 261.43 28.45Q263.10 30.20 264 32.70Q264.90 35.20 264.90 38.35Q264.90 41.50 264 44.00Q263.10 46.50 261.43 48.25Q259.75 50.00 257.35 50.92Q254.95 51.85 251.95 51.85M251.95 46.35Q254.45 46.35 255.85 44.80Q257.25 43.25 257.25 40.40L257.25 36.30Q257.25 33.45 255.85 31.90Q254.45 30.35 251.95 30.35Q249.45 30.35 248.05 31.90Q246.65 33.45 246.65 36.30L246.65 40.40Q246.65 43.25 248.05 44.80Q249.45 46.35 251.95 46.35ZM270.35 45.50L278.25 45.50L278.25 20.00L270.35 20.00L270.35 14.25L285.65 14.25L285.65 45.50L293.55 45.50L293.55 51.25L270.35 51.25L270.35 45.50ZM313.55 22.15Q311.05 22.15 310.07 21.12Q309.10 20.10 309.10 18.65L309.10 17.20Q309.10 15.70 310.07 14.70Q311.05 13.70 313.55 13.70Q316.05 13.70 317.02 14.70Q318 15.70 318 17.20L318 18.65Q318 20.10 317.02 21.12Q316.05 22.15 313.55 22.15M301.65 45.50L309.85 45.50L309.85 31.20L301.65 31.20L301.65 25.45L317.25 25.45L317.25 45.50L324.85 45.50L324.85 51.25L301.65 51.25L301.65 45.50ZM341.95 51.85Q338.95 51.85 336.55 50.92Q334.15 50.00 332.47 48.25Q330.80 46.50 329.90 44.00Q329 41.50 329 38.35Q329 35.20 329.90 32.70Q330.80 30.20 332.47 28.45Q334.15 26.70 336.55 25.77Q338.95 24.85 341.95 24.85Q344.95 24.85 347.35 25.77Q349.75 26.70 351.43 28.45Q353.10 30.20 354 32.70Q354.90 35.20 354.90 38.35Q354.90 41.50 354 44.00Q353.10 46.50 351.43 48.25Q349.75 50.00 347.35 50.92Q344.95 51.85 341.95 51.85M341.95 46.35Q344.45 46.35 345.85 44.80Q347.25 43.25 347.25 40.40L347.25 36.30Q347.25 33.45 345.85 31.90Q344.45 30.35 341.95 30.35Q339.45 30.35 338.05 31.90Q336.65 33.45 336.65 36.30L336.65 40.40Q336.65 43.25 338.05 44.80Q339.45 46.35 341.95 46.35ZM359.95 60.85L359.95 54.80L383.95 54.80L383.95 60.85L359.95 60.85Z"/></g><g fill="#000000" transform="translate(0, 63.75)"><path d=""/></g></g></svg>